<mxfile host="65bd71144e" modified="2020-12-14T11:50:04.900Z" agent="5.0 (Macintosh; Intel Mac OS X 11_0_0) AppleWebKit/537.36 (KHTML, like Gecko) Code/1.52.0 Chrome/83.0.4103.122 Electron/9.3.5 Safari/537.36" version="13.10.0" etag="goNWFe5oudr5whee0CRI" type="embed">
    <diagram id="B_A6UxWh3LVBvtiUbJsf" name="Page-1">
        <mxGraphModel dx="670" dy="496" grid="1" gridSize="10" guides="0" tooltips="1" connect="1" arrows="1" fold="1" page="1" pageScale="1" pageWidth="827" pageHeight="1169" math="0" shadow="0">
            <root>
                <mxCell id="0"/>
                <mxCell id="1" parent="0"/>
                <mxCell id="7" value="" style="html=1;verticalLabelPosition=bottom;labelBackgroundColor=#ffffff;verticalAlign=top;shadow=0;dashed=0;strokeWidth=1;shape=mxgraph.ios7.misc.iphone;strokeColor=#c0c0c0;" vertex="1" parent="1">
                    <mxGeometry x="310" y="330" width="200" height="400" as="geometry"/>
                </mxCell>
                <mxCell id="34" value="" style="rounded=0;whiteSpace=wrap;html=1;shadow=0;fillColor=#FFFFFF;gradientColor=none;" vertex="1" parent="1">
                    <mxGeometry x="323" y="405" width="174" height="234" as="geometry"/>
                </mxCell>
                <mxCell id="28" value="Choix 8" style="rounded=1;whiteSpace=wrap;html=1;fillColor=#1ba1e2;strokeColor=#006EAF;fontColor=#ffffff;" vertex="1" parent="1">
                    <mxGeometry x="330" y="630" width="160" height="20" as="geometry"/>
                </mxCell>
                <mxCell id="8" value="" style="html=1;strokeWidth=1;shadow=0;dashed=0;shape=mxgraph.ios7ui.appBar;fillColor=#ffffff;gradientColor=none;" vertex="1" parent="1">
                    <mxGeometry x="322.5" y="390" width="175" height="15" as="geometry"/>
                </mxCell>
                <mxCell id="9" value="CARRIER" style="shape=rect;align=left;fontSize=8;spacingLeft=24;fontSize=4;fontColor=#aaaaaa;strokeColor=none;fillColor=none;spacingTop=4;" vertex="1" parent="8">
                    <mxGeometry y="0.5" width="50" height="13" relative="1" as="geometry">
                        <mxPoint y="-6.5" as="offset"/>
                    </mxGeometry>
                </mxCell>
                <mxCell id="10" value="11:55PM" style="shape=rect;fontSize=8;fontColor=#aaaaaa;strokeColor=none;fillColor=none;spacingTop=4;" vertex="1" parent="8">
                    <mxGeometry x="0.5" y="0.5" width="50" height="13" relative="1" as="geometry">
                        <mxPoint x="-30" y="-6.5" as="offset"/>
                    </mxGeometry>
                </mxCell>
                <mxCell id="11" value="98%" style="shape=rect;align=right;fontSize=8;spacingRight=19;fontSize=6;fontColor=#aaaaaa;strokeColor=none;fillColor=none;spacingTop=4;" vertex="1" parent="8">
                    <mxGeometry x="1" y="0.5" width="45" height="13" relative="1" as="geometry">
                        <mxPoint x="-45" y="-6.5" as="offset"/>
                    </mxGeometry>
                </mxCell>
                <mxCell id="12" value="choix 1" style="rounded=1;whiteSpace=wrap;html=1;fillColor=#1ba1e2;strokeColor=#006EAF;fontColor=#ffffff;" vertex="1" parent="1">
                    <mxGeometry x="330" y="420" width="160" height="20" as="geometry"/>
                </mxCell>
                <mxCell id="15" value="choix 2" style="rounded=1;whiteSpace=wrap;html=1;fillColor=#1ba1e2;strokeColor=#006EAF;fontColor=#ffffff;" vertex="1" parent="1">
                    <mxGeometry x="330" y="450" width="160" height="20" as="geometry"/>
                </mxCell>
                <mxCell id="16" value="Choix 3" style="rounded=1;whiteSpace=wrap;html=1;fillColor=#1ba1e2;strokeColor=#006EAF;fontColor=#ffffff;" vertex="1" parent="1">
                    <mxGeometry x="330" y="479" width="160" height="20" as="geometry"/>
                </mxCell>
                <mxCell id="17" value="Choix 4" style="rounded=1;whiteSpace=wrap;html=1;fillColor=#1ba1e2;strokeColor=#006EAF;fontColor=#ffffff;" vertex="1" parent="1">
                    <mxGeometry x="330" y="509" width="160" height="20" as="geometry"/>
                </mxCell>
                <mxCell id="18" value="Choix 5" style="rounded=1;whiteSpace=wrap;html=1;fillColor=#1ba1e2;strokeColor=#006EAF;fontColor=#ffffff;" vertex="1" parent="1">
                    <mxGeometry x="330" y="539" width="160" height="20" as="geometry"/>
                </mxCell>
                <mxCell id="19" value="Choix 6" style="rounded=1;whiteSpace=wrap;html=1;fillColor=#1ba1e2;strokeColor=#006EAF;fontColor=#ffffff;" vertex="1" parent="1">
                    <mxGeometry x="330" y="568.5" width="160" height="20" as="geometry"/>
                </mxCell>
                <mxCell id="27" value="Choix 7" style="rounded=1;whiteSpace=wrap;html=1;fillColor=#1ba1e2;strokeColor=#006EAF;fontColor=#ffffff;" vertex="1" parent="1">
                    <mxGeometry x="330" y="600" width="160" height="20" as="geometry"/>
                </mxCell>
                <mxCell id="33" value="" style="group" vertex="1" connectable="0" parent="1">
                    <mxGeometry x="322.47062350119904" y="640" width="175.83333333333331" height="30" as="geometry"/>
                </mxCell>
                <mxCell id="30" value="Attestation" style="rounded=0;whiteSpace=wrap;html=1;gradientColor=#ea6b66;fillColor=#f8cecc;strokeColor=#b85450;" vertex="1" parent="33">
                    <mxGeometry width="87.91666666666667" height="30" as="geometry"/>
                </mxCell>
                <mxCell id="31" value="Setup" style="rounded=0;whiteSpace=wrap;html=1;fillColor=#f5f5f5;strokeColor=#666666;gradientColor=#b3b3b3;" vertex="1" parent="33">
                    <mxGeometry x="87.91666666666663" width="87.91666666666667" height="30" as="geometry"/>
                </mxCell>
            </root>
        </mxGraphModel>
    </diagram>
</mxfile>